<?xml version="1.0" encoding="UTF-8"?> <svg xmlns="http://www.w3.org/2000/svg" width="35" height="35" viewBox="0 0 35 35" fill="none"> <path d="M11.2186 1.15376C13.0095 0.464535 14.9015 0.0747471 16.8188 0L17.341 13.4162C17.3938 13.4142 17.4468 13.4132 17.5 13.4132C17.8572 13.4132 18.2036 13.459 18.5338 13.5452L21.929 0.556851C23.7853 1.04283 25.5491 1.83101 27.1498 2.88983L19.752 14.0903C20.0966 14.3187 20.4045 14.598 20.6651 14.9176L31.0643 6.43403C32.2767 7.92237 33.2362 9.6001 33.9044 11.4001L21.3287 16.076C21.4686 16.4525 21.5545 16.8552 21.5773 17.2748L34.9735 16.5361C35.0791 18.4534 34.8688 20.375 34.3512 22.224L21.433 18.6022C21.3203 19.0053 21.1475 19.3833 20.9248 19.7257L32.1768 27.0383C31.1317 28.6487 29.8292 30.0762 28.3212 31.2635L20.0249 20.7113C19.7067 20.9622 19.3503 21.1667 18.9659 21.3148L23.7814 33.8462C21.9905 34.5354 20.0985 34.9252 18.1812 34.9999L17.6589 21.5829C17.6062 21.585 17.5532 21.586 17.5 21.586C17.1429 21.586 16.7966 21.5401 16.4665 21.4539L13.0711 34.4426C11.2148 33.9566 9.45105 33.1684 7.85037 32.1096L15.2483 20.909C14.9037 20.6806 14.5957 20.4013 14.3351 20.0818L3.93588 28.5654C2.72353 27.0771 1.76402 25.3993 1.09575 23.5994L13.6714 18.9235C13.5315 18.547 13.4455 18.1442 13.4228 17.7247L0.0265015 18.4633C-0.0790543 16.546 0.131182 14.6244 0.648795 12.7754L13.567 16.3972C13.6795 15.9941 13.8523 15.6162 14.075 15.2738L2.82323 7.96134C3.86826 6.35093 5.17082 4.92348 6.67876 3.73611L14.9749 14.288C15.2931 14.0371 15.6494 13.8325 16.0339 13.6845L11.2186 1.15376Z" fill="white"></path> </svg> 